<?xml version="1.0" encoding="utf-8"?>
<!-- Generator: Adobe Illustrator 17.0.0, SVG Export Plug-In . SVG Version: 6.00 Build 0)  -->
<!DOCTYPE svg PUBLIC "-//W3C//DTD SVG 1.1//EN" "http://www.w3.org/Graphics/SVG/1.1/DTD/svg11.dtd">
<svg version="1.1" id="Group_886" xmlns="http://www.w3.org/2000/svg" xmlns:xlink="http://www.w3.org/1999/xlink" x="0px" y="0px"
	 width="67.783px" height="67.783px" viewBox="0 0 67.783 67.783" enable-background="new 0 0 67.783 67.783" xml:space="preserve">
<g id="Icon" opacity="0.37">
	<path id="Icon.BG" fill="#EFE5BD" d="M33.891,0c18.717,0,33.891,15.174,33.891,33.891S52.608,67.782,33.891,67.782
		S0,52.608,0,33.891S15.174,0,33.891,0z"/>
</g>
<path fill="#C0B08C" d="M24.842,30.434v7.797c0,1.037-0.815,1.865-1.852,1.865c-1.03,0-2.027-0.835-2.027-1.865v-7.797
	c0-1.017,0.996-1.852,2.027-1.852C24.007,28.583,24.842,29.418,24.842,30.434z M25.569,41.005c0,1.104,0.889,1.993,1.993,1.993h1.34
	l0.02,4.114c0,2.485,3.717,2.464,3.717,0v-4.114h2.505v4.114c0,2.471,3.737,2.478,3.737,0v-4.114h1.36
	c1.091,0,1.98-0.889,1.98-1.993V28.926H25.569V41.005z M42.267,28.273H25.495c0-2.882,1.724-5.386,4.282-6.693l-1.286-2.377
	c-0.189-0.33,0.29-0.539,0.451-0.256l1.306,2.397c2.35-1.044,5.05-0.99,7.292,0l1.299-2.39c0.168-0.29,0.64-0.074,0.451,0.256
	l-1.286,2.37C40.544,22.886,42.267,25.391,42.267,28.273z M30.774,24.536c0-0.384-0.31-0.707-0.707-0.707
	c-0.384,0-0.687,0.323-0.687,0.707c0,0.384,0.31,0.707,0.687,0.707C30.464,25.243,30.774,24.92,30.774,24.536z M38.409,24.536
	c0-0.384-0.31-0.707-0.687-0.707c-0.397,0-0.707,0.323-0.707,0.707c0,0.384,0.31,0.707,0.707,0.707
	C38.1,25.243,38.409,24.92,38.409,24.536z M44.792,28.583c-1.017,0-1.852,0.815-1.852,1.852v7.797c0,1.037,0.835,1.865,1.852,1.865
	c1.037,0,2.027-0.835,2.027-1.865v-7.797C46.819,29.397,45.823,28.583,44.792,28.583z"/>
</svg>
