<?xml version="1.0" encoding="utf-8"?>
<!-- Generator: Adobe Illustrator 17.0.0, SVG Export Plug-In . SVG Version: 6.00 Build 0)  -->
<!DOCTYPE svg PUBLIC "-//W3C//DTD SVG 1.1//EN" "http://www.w3.org/Graphics/SVG/1.1/DTD/svg11.dtd">
<svg version="1.1" id="Group_886" xmlns="http://www.w3.org/2000/svg" xmlns:xlink="http://www.w3.org/1999/xlink" x="0px" y="0px"
	 width="67.783px" height="67.783px" viewBox="0 0 67.783 67.783" enable-background="new 0 0 67.783 67.783" xml:space="preserve">
<g id="Icon" opacity="0.37">
	<path id="Icon.BG" fill="#EFE5BD" d="M33.891,0c18.717,0,33.891,15.174,33.891,33.891S52.608,67.782,33.891,67.782
		S0,52.608,0,33.891S15.174,0,33.891,0z"/>
</g>
<path fill="#C0B08C" d="M42.432,34.752c-0.014-2.478,1.107-4.348,3.376-5.725c-1.269-1.816-3.187-2.815-5.719-3.011
	c-2.397-0.189-5.016,1.398-5.975,1.398c-1.013,0-3.335-1.33-5.158-1.33c-3.767,0.061-7.771,3.004-7.771,8.993
	c0,1.769,0.324,3.599,0.972,5.482c0.864,2.478,3.983,8.554,7.238,8.453c1.701-0.041,2.903-1.209,5.118-1.209
	c2.147,0,3.261,1.209,5.158,1.209c3.281-0.047,6.104-5.57,6.927-8.055C42.196,38.884,42.432,34.88,42.432,34.752L42.432,34.752z
	 M38.611,23.665c1.843-2.188,1.674-4.179,1.62-4.895c-1.627,0.095-3.511,1.107-4.584,2.356c-1.182,1.337-1.877,2.991-1.728,4.854
	C35.681,26.116,37.288,25.212,38.611,23.665z"/>
</svg>
