<?xml version="1.0" encoding="utf-8"?>
<!-- Generator: Adobe Illustrator 17.0.0, SVG Export Plug-In . SVG Version: 6.00 Build 0)  -->
<!DOCTYPE svg PUBLIC "-//W3C//DTD SVG 1.1//EN" "http://www.w3.org/Graphics/SVG/1.1/DTD/svg11.dtd">
<svg version="1.1" id="Group_886" xmlns="http://www.w3.org/2000/svg" xmlns:xlink="http://www.w3.org/1999/xlink" x="0px" y="0px"
	 width="67.783px" height="67.783px" viewBox="0 0 67.783 67.783" enable-background="new 0 0 67.783 67.783" xml:space="preserve">
<g id="Icon" opacity="0.37">
	<path id="Icon.BG" fill="#EFE5BD" d="M33.891,0c18.717,0,33.891,15.174,33.891,33.891S52.608,67.782,33.891,67.782
		S0,52.608,0,33.891S15.174,0,33.891,0z"/>
</g>
<path fill="#C0B08C" d="M25.213,39.061h-1.846c-0.306,0-0.554,0.248-0.554,0.554v1.846c0,0.306,0.248,0.554,0.554,0.554h1.846
	c0.306,0,0.554-0.248,0.554-0.554v-1.846C25.767,39.309,25.519,39.061,25.213,39.061z M25.213,34.63h-1.846
	c-0.306,0-0.554,0.248-0.554,0.554v1.846c0,0.306,0.248,0.554,0.554,0.554h1.846c0.306,0,0.554-0.248,0.554-0.554v-1.846
	C25.767,34.878,25.519,34.63,25.213,34.63z M25.213,30.199h-1.846c-0.306,0-0.554,0.248-0.554,0.554v1.846
	c0,0.306,0.248,0.554,0.554,0.554h1.846c0.306,0,0.554-0.248,0.554-0.554v-1.846C25.767,30.447,25.519,30.199,25.213,30.199z
	 M29.645,39.061h-1.846c-0.306,0-0.554,0.248-0.554,0.554v1.846c0,0.306,0.248,0.554,0.554,0.554h1.846
	c0.306,0,0.554-0.248,0.554-0.554v-1.846C30.199,39.309,29.95,39.061,29.645,39.061z M29.645,34.63h-1.846
	c-0.306,0-0.554,0.248-0.554,0.554v1.846c0,0.306,0.248,0.554,0.554,0.554h1.846c0.306,0,0.554-0.248,0.554-0.554v-1.846
	C30.199,34.878,29.95,34.63,29.645,34.63z M29.645,30.199h-1.846c-0.306,0-0.554,0.248-0.554,0.554v1.846
	c0,0.306,0.248,0.554,0.554,0.554h1.846c0.306,0,0.554-0.248,0.554-0.554v-1.846C30.199,30.447,29.95,30.199,29.645,30.199z
	 M38.507,34.63h-1.846c-0.306,0-0.554,0.248-0.554,0.554v1.846c0,0.306,0.248,0.554,0.554,0.554h1.846
	c0.306,0,0.554-0.248,0.554-0.554v-1.846C39.061,34.878,38.813,34.63,38.507,34.63z M38.507,30.199h-1.846
	c-0.306,0-0.554,0.248-0.554,0.554v1.846c0,0.306,0.248,0.554,0.554,0.554h1.846c0.306,0,0.554-0.248,0.554-0.554v-1.846
	C39.061,30.447,38.813,30.199,38.507,30.199z M38.507,25.767h-1.846c-0.306,0-0.554,0.248-0.554,0.554v1.846
	c0,0.306,0.248,0.554,0.554,0.554h1.846c0.306,0,0.554-0.248,0.554-0.554v-1.846C39.061,26.015,38.813,25.767,38.507,25.767z
	 M44.416,39.061H42.57c-0.306,0-0.554,0.248-0.554,0.554v1.846c0,0.306,0.248,0.554,0.554,0.554h1.846
	c0.306,0,0.554-0.248,0.554-0.554v-1.846C44.97,39.309,44.721,39.061,44.416,39.061z M44.416,34.63H42.57
	c-0.306,0-0.554,0.248-0.554,0.554v1.846c0,0.306,0.248,0.554,0.554,0.554h1.846c0.306,0,0.554-0.248,0.554-0.554v-1.846
	C44.97,34.878,44.721,34.63,44.416,34.63z M47.555,30.937h-4.801v-7.755c0-0.612-0.496-1.108-1.108-1.108h-8.124
	c-0.612,0-1.108,0.496-1.108,1.108v3.323H29.46v-4.062c0-0.204-0.165-0.369-0.369-0.369h-0.739c-0.204,0-0.369,0.165-0.369,0.369
	v4.062h-2.954v-4.062c0-0.204-0.165-0.369-0.369-0.369h-0.739c-0.204,0-0.369,0.165-0.369,0.369v4.062h-3.323
	c-0.612,0-1.108,0.496-1.108,1.108v17.725c0,0.204,0.165,0.369,0.369,0.369h0.739c0.204,0,0.369-0.165,0.369-0.369V27.983h13.294
	v-4.431h7.386v8.863h5.908v12.925c0,0.204,0.165,0.369,0.369,0.369h0.739c0.204,0,0.369-0.165,0.369-0.369V32.045
	C48.663,31.433,48.166,30.937,47.555,30.937z"/>
</svg>
