<?xml version="1.0" encoding="utf-8"?>
<!-- Generator: Adobe Illustrator 17.0.0, SVG Export Plug-In . SVG Version: 6.00 Build 0)  -->
<!DOCTYPE svg PUBLIC "-//W3C//DTD SVG 1.1//EN" "http://www.w3.org/Graphics/SVG/1.1/DTD/svg11.dtd">
<svg version="1.1" id="Group_886" xmlns="http://www.w3.org/2000/svg" xmlns:xlink="http://www.w3.org/1999/xlink" x="0px" y="0px"
	 width="67.783px" height="67.783px" viewBox="0 0 67.783 67.783" enable-background="new 0 0 67.783 67.783" xml:space="preserve">
<g id="Icon" opacity="0.37">
	<path id="Icon.BG" fill="#EFE5BD" d="M33.891,0c18.717,0,33.891,15.174,33.891,33.891S52.608,67.782,33.891,67.782
		S0,52.608,0,33.891S15.174,0,33.891,0z"/>
</g>
<path fill="#C0B08C" d="M29.755,25.049c0-0.452-0.368-0.821-0.821-0.821h-0.006c-0.22,0-0.427,0.084-0.575,0.239L26.51,26.31
	c-0.155,0.155-0.239,0.362-0.239,0.575v0.006c0,0.452,0.368,0.821,0.821,0.821h1.163c0.22,0,0.427-0.084,0.575-0.239l0.679-0.679
	c0.155-0.155,0.239-0.362,0.239-0.575v-1.17L29.755,25.049z M33.891,17.861c-8.855,0-16.03,7.175-16.03,16.03
	s7.175,16.03,16.03,16.03s16.03-7.175,16.03-16.03S42.747,17.861,33.891,17.861z M36.994,47.491v-2.224
	c0-1.713-1.39-3.103-3.103-3.103h-1.306c-0.252,0-0.847-0.2-1.047-0.349l-1.435-1.079c-0.22-0.162-0.349-0.427-0.349-0.698v-1.545
	c0-0.304,0.162-0.588,0.42-0.75l2.773-1.661c0.136-0.084,0.291-0.123,0.446-0.123h2.017c0.207,0,0.407,0.078,0.569,0.207
	l3.374,2.896h1.952l1.118,1.118c0.614,0.614,1.428,0.95,2.295,0.95h1.086C43.872,44.305,40.717,46.644,36.994,47.491z
	 M46.851,39.062h-2.127c-0.31,0-0.614-0.123-0.834-0.343l-1.118-1.118c-0.388-0.388-0.911-0.608-1.461-0.608h-1.183l-2.792-2.398
	c-0.53-0.459-1.209-0.705-1.913-0.705h-2.017c-0.53,0-1.054,0.142-1.513,0.42l-2.773,1.661c-0.886,0.53-1.428,1.487-1.428,2.521
	v1.545c0,0.924,0.433,1.797,1.176,2.353l1.435,1.079c0.556,0.42,1.59,0.763,2.288,0.763h1.306c0.569,0,1.034,0.465,1.034,1.034
	v2.534c-0.343,0.026-0.685,0.052-1.034,0.052c-7.698,0-13.962-6.263-13.962-13.962c0-7.685,6.238-13.936,13.916-13.962l-0.995,0.717
	c-0.659,0.498-1.034,1.241-1.034,2.03v1.5c0,0.414,0.2,1.099,0.381,1.441c-0.052,0.136-1.364,0.97-1.59,1.196
	c-0.556,0.556-0.86,1.293-0.86,2.075v1.06c0,1.616,1.319,2.935,2.935,2.935h1.635c0.711,0,1.37-0.252,1.887-0.685
	c0.252,0.09,0.53,0.136,0.814,0.136h0.866c1.655,0,2.081-1.306,2.333-1.39c0.33,0.588,0.873,1.047,1.519,1.26
	c-0.278,0.918-0.058,1.959,0.653,2.689l1.176,1.235c0.562,0.575,1.332,0.898,2.114,0.898h1.79
	C47.323,37.724,47.11,38.403,46.851,39.062L46.851,39.062z M45.701,34.952c-0.233,0-0.459-0.097-0.621-0.259l-1.196-1.254
	c-0.247-0.252-0.244-0.656,0.006-0.905c0.814-0.814,0.679-0.556,0.679-1.151c0-0.162-0.065-0.317-0.181-0.433l-0.511-0.511
	c-0.116-0.116-0.271-0.181-0.433-0.181h-0.866c-0.549,0-0.814-0.666-0.433-1.047l0.511-0.472c0.116-0.116,0.271-0.181,0.433-0.181
	h0.536c0.336,0,0.614-0.271,0.614-0.614v-0.659c0-0.336-0.271-0.614-0.614-0.614h-1.823c-0.478,0-0.866,0.388-0.866,0.866V27.9
	c0,0.375-0.239,0.705-0.595,0.821l-1.713,0.569c-0.278,0.09-0.297,0.323-0.297,0.53c0,0.239-0.194,0.433-0.433,0.433h-0.866
	c-0.239,0-0.433-0.194-0.433-0.433c0-0.543-0.808-0.556-0.989-0.194c-0.582,0.802-0.743,1.176-1.286,1.176h-1.635
	c-0.478,0-0.866-0.388-0.866-0.866v-1.06c0-0.233,0.09-0.452,0.252-0.614c1.26-0.905,1.913-1.138,1.913-2.036
	c0-0.187,0.116-0.356,0.297-0.414l2.172-0.724c0.09-0.032,0.175-0.078,0.239-0.149l1.454-1.454c0.323-0.323,0.226-0.963-0.433-0.963
	h-1.125l-0.866,1.222v0.433c0,0.239-0.194,0.433-0.433,0.433h-0.97c-0.239,0-0.433-0.194-0.433-0.433v-1.5
	c0-0.136,0.065-0.265,0.175-0.349l2.844-2.062c6.25,1.39,10.943,6.968,10.943,13.626c0,0.356-0.026,0.711-0.052,1.06H45.701z"/>
</svg>
