<?xml version="1.0" encoding="utf-8"?>
<!-- Generator: Adobe Illustrator 17.0.0, SVG Export Plug-In . SVG Version: 6.00 Build 0)  -->
<!DOCTYPE svg PUBLIC "-//W3C//DTD SVG 1.1//EN" "http://www.w3.org/Graphics/SVG/1.1/DTD/svg11.dtd">
<svg version="1.1" id="Layer_1" xmlns="http://www.w3.org/2000/svg" xmlns:xlink="http://www.w3.org/1999/xlink" x="0px" y="0px"
	 width="61.154px" height="61.153px" viewBox="0 0 61.154 61.153" enable-background="new 0 0 61.154 61.153" xml:space="preserve">
<g>
	<path fill="#C4BA98" d="M20.545,14.284c0,0,0.06-0.842,0.133-1.727c0.095-1.142,0.742-2.296,0.742-2.296s-0.459,0.153-1.786,0.758
		c-0.491,0.223-1.85,1.007-3.466,2.386l2.425,2.834C19.734,14.882,20.545,14.284,20.545,14.284"/>
	<path fill="#C4BA98" d="M35.26,9.81c0.177,0.31,0.428,0.543,0.706,0.709c0.035,0.021,0.07,0.041,0.106,0.06l0.054,0.027
		c0.013,0.006,0.006,0.004,0.009,0.005c0,0.001,0.001,0.001,0.002,0.001c0.004-0.001,0.009-0.005,0.019,0.001
		c0.009,0.005,0.019,0.002,0.032,0.013c0.052,0.025,0.129,0.089,0.212,0.173c0.085,0.082,0.176,0.182,0.279,0.291
		c0.105,0.11,0.215,0.227,0.36,0.356c0.114-0.16,0.172-0.328,0.21-0.5c0.036-0.172,0.041-0.348,0.015-0.532
		c-0.028-0.183-0.091-0.375-0.228-0.566c-0.029-0.047-0.077-0.094-0.118-0.139c-0.04-0.046-0.097-0.087-0.152-0.127l-0.041-0.03
		l-0.036-0.023L36.65,9.504c-0.026-0.016-0.053-0.032-0.078-0.048c-0.209-0.126-0.421-0.234-0.644-0.333
		c-0.114-0.049-0.228-0.098-0.353-0.155c-0.127-0.057-0.257-0.123-0.416-0.234c-0.098,0.172-0.108,0.374-0.082,0.56
		C35.104,9.481,35.174,9.654,35.26,9.81"/>
	<path fill="#C4BA98" d="M32.865,13.827c0.161,0.093,0.337,0.142,0.509,0.168c0.348,0.047,0.681-0.014,0.979-0.137
		c0.037-0.016,0.075-0.032,0.111-0.049l0.054-0.028c0.013-0.006,0.007-0.002,0.009-0.003c0.001-0.001,0.002-0.001,0.002-0.002
		c0.002-0.004,0.002-0.01,0.013-0.014c0.009-0.004,0.013-0.015,0.03-0.018c0.051-0.027,0.148-0.05,0.262-0.067
		c0.116-0.018,0.249-0.03,0.396-0.047c0.149-0.018,0.307-0.035,0.494-0.073c-0.052-0.191-0.146-0.341-0.255-0.477
		c-0.11-0.135-0.243-0.247-0.401-0.339c-0.157-0.089-0.344-0.156-0.575-0.162c-0.054-0.006-0.119,0.004-0.18,0.011
		c-0.06,0.003-0.126,0.024-0.19,0.044l-0.049,0.016l-0.04,0.015l-0.043,0.016c-0.028,0.011-0.056,0.023-0.085,0.033
		c-0.225,0.093-0.438,0.198-0.651,0.319c-0.107,0.062-0.215,0.124-0.335,0.191c-0.122,0.067-0.252,0.132-0.435,0.193
		C32.557,13.602,32.706,13.734,32.865,13.827"/>
	<path fill="#C4BA98" d="M15.872,20.276l-3.847-2.279c-0.831,1.211-1.598,2.585-2.224,4.128l4.507,1.488
		C14.81,22.362,15.34,21.251,15.872,20.276"/>
	<path fill="#C4BA98" d="M18.038,16.929l-2.522-2.947c-0.974,0.893-2.005,1.99-2.979,3.298l3.768,2.233
		C16.905,18.489,17.496,17.633,18.038,16.929"/>
	<path fill="#C4BA98" d="M36.306,14.023c-0.041,0.799,0.351,1.529,0.987,2.006c0.816-0.32,1.713-0.056,2.658,0.414
		c0.958-0.326,1.658-1.141,1.708-2.131c0.069-1.34-1.074-2.49-2.552-2.57C37.629,11.662,36.375,12.684,36.306,14.023"/>
	<path fill="#C4BA98" d="M43.025,13.198c0.18,0.008,0.376-0.018,0.585-0.119c0.051-0.019,0.105-0.058,0.156-0.091
		c0.052-0.031,0.102-0.08,0.152-0.127l0.036-0.037l0.029-0.031l0.032-0.034c0.02-0.024,0.04-0.047,0.061-0.069
		c0.162-0.186,0.306-0.378,0.444-0.584c0.069-0.105,0.139-0.21,0.217-0.325c0.08-0.116,0.168-0.233,0.306-0.371
		c-0.145-0.133-0.336-0.182-0.519-0.193c-0.185-0.01-0.363,0.027-0.529,0.083c-0.331,0.117-0.603,0.324-0.816,0.571
		c-0.027,0.031-0.053,0.062-0.078,0.095l-0.036,0.049c-0.009,0.012-0.005,0.005-0.007,0.008c-0.001,0-0.001,0.001-0.001,0.002
		c0,0.004,0.003,0.01-0.005,0.018c-0.007,0.008-0.006,0.019-0.019,0.031c-0.034,0.047-0.11,0.112-0.206,0.179
		c-0.095,0.07-0.209,0.141-0.334,0.224c-0.125,0.084-0.259,0.172-0.41,0.292c0.13,0.146,0.279,0.238,0.436,0.31
		C42.675,13.149,42.843,13.188,43.025,13.198"/>
	<path fill="#C4BA98" d="M44.656,16.148c-0.144-0.201-0.294-0.389-0.46-0.57c-0.022-0.022-0.042-0.045-0.063-0.067L44.1,15.478
		l-0.03-0.031l-0.037-0.035c-0.051-0.046-0.102-0.094-0.155-0.123c-0.052-0.032-0.107-0.069-0.159-0.087
		c-0.211-0.095-0.408-0.115-0.588-0.102c-0.181,0.015-0.347,0.06-0.503,0.134c-0.154,0.077-0.301,0.173-0.427,0.323
		c0.155,0.115,0.291,0.199,0.419,0.28c0.126,0.079,0.242,0.147,0.339,0.214c0.098,0.064,0.176,0.127,0.211,0.173
		c0.014,0.011,0.013,0.022,0.02,0.03c0.008,0.008,0.005,0.014,0.006,0.018c0,0.001,0,0.002,0.001,0.002
		c0.002,0.002-0.003-0.004,0.006,0.008l0.038,0.048c0.026,0.031,0.053,0.062,0.081,0.092c0.22,0.241,0.497,0.44,0.831,0.548
		c0.167,0.051,0.347,0.082,0.531,0.067c0.183-0.016,0.372-0.071,0.514-0.208c-0.142-0.134-0.233-0.249-0.316-0.363
		C44.8,16.354,44.728,16.251,44.656,16.148"/>
	<path fill="#C4BA98" d="M13.99,24.436l-4.503-1.487c-0.309,0.862-0.574,1.771-0.779,2.732c-0.127,0.595-0.227,1.174-0.31,1.74
		l4.415,0.769C13.167,26.824,13.566,25.577,13.99,24.436"/>
	<path fill="#C4BA98" d="M39.617,10.645c0.094,0.148,0.205,0.285,0.366,0.394c0.092-0.172,0.156-0.321,0.217-0.461
		c0.061-0.139,0.112-0.266,0.164-0.373c0.05-0.107,0.101-0.195,0.141-0.237c0.009-0.015,0.02-0.015,0.026-0.023
		c0.007-0.01,0.013-0.008,0.017-0.008c0.001-0.001,0.002-0.001,0.002-0.002c0.002-0.002-0.003,0.003,0.007-0.008l0.041-0.045
		c0.028-0.03,0.054-0.061,0.08-0.093c0.204-0.254,0.362-0.562,0.424-0.916C41.13,8.697,41.137,8.51,41.1,8.324
		c-0.039-0.184-0.116-0.369-0.266-0.496c-0.111,0.161-0.211,0.268-0.311,0.367c-0.098,0.098-0.189,0.184-0.279,0.27
		c-0.176,0.172-0.339,0.348-0.493,0.541c-0.018,0.024-0.038,0.048-0.057,0.072l-0.027,0.038l-0.026,0.035l-0.03,0.042
		c-0.038,0.057-0.077,0.115-0.099,0.173c-0.024,0.057-0.053,0.118-0.064,0.172c-0.065,0.228-0.059,0.431-0.024,0.612
		C39.462,10.332,39.526,10.496,39.617,10.645"/>
	<path fill="#C4BA98" d="M20.545,16.042c0,0-3.809,3.269-6.185,11.492c-2.377,8.222-0.085,16.683,0.453,17.7
		c0.52,0.982,0.881,3.503,5.732,4.969c7.065,2.135,13.045-0.216,13.045-0.216s-0.679-6.779-2.24-8.591
		C29.788,39.585,20.424,28.045,20.545,16.042"/>
	<path fill="#C4BA98" d="M38.38,20.967c-1.306,0.176-2.56-0.019-3.422-0.39c-0.863-0.37-2.091-0.604-2.091-0.604
		s1.699-0.156,2.482-0.623c0.784-0.468,1.411-0.721,2.012-0.605c0.703,0.137,1.231,0.742,1.578,1.344
		C39.28,20.681,38.955,20.89,38.38,20.967 M39.499,18.047c-0.742-0.624-1.648-0.882-2.539-0.724c0,0-7.412-1.911-8.163-2.123
		l-2.819-0.797c0,0,0.879-4.002-1.791-4.343c-1.99-0.254-2.214,2.408-2.292,3.47c-0.251,3.422,0.251,6.53,0.937,9.416
		c0.986,4.149,2.978,7.913,5.168,11.473c0.673,1.094,1.376,2.167,2.12,3.207c0.189,0.264,2.358,2.91,2.336,2.949
		c1.522-2.635,4.964-1.368,6.42,0.602c0.639,0.865,1.136,1.879,1.382,2.937c0.389,1.668-0.43,2.626-0.831,4.185
		c-0.086,0.335-0.07,0.696,0.071,1.011c0.352,0.786,1.171,0.765,1.823,0.545c2.036-0.688,3.245-2.373,3.928-4.265
		c0.579-1.603,0.639-5.04-1.211-5.994l0.523-3.193l-2.397,2.228c-1.919-1.953-2.849-4.363-3.294-6.059
		c-0.309-1.179,0.105-2.457,0.985-3.064c1.708-1.175,3.729-1.465,5.612-0.803l1.351,0.475l-1.251,4.549l3.265-3.728l1.558-0.779
		c0.822-0.412,1.484-1.66,1.443-2.748c0,0,0.165-2.214-0.456-2.546l-2.746-1.064l3.326,0.47c0,0,0.713-1.87-0.014-2.492
		l-11.268-1.807L39.499,18.047z"/>
	<path fill="#C4BA98" d="M12.008,33.641l-3.663,0.176C8.583,35.496,9.013,37,9.541,38.356l2.502-0.437
		C11.952,36.462,11.943,35.007,12.008,33.641"/>
	<path fill="#C4BA98" d="M9.886,39.192c1.36,3.094,3.312,5.595,3.312,5.595c-0.554-1.779-0.91-3.863-1.09-5.983L9.886,39.192z"/>
	<path fill="#C4BA98" d="M12.569,29.182c0.01-0.045,0.022-0.088,0.033-0.133l-4.317-0.751c-0.184,1.671-0.185,3.216-0.045,4.64
		l3.822-0.184C12.16,31.425,12.331,30.203,12.569,29.182"/>
	<path fill="#C4BA98" d="M30.577,58.446c-15.367,0-27.869-12.502-27.869-27.869S15.21,2.707,30.577,2.707
		s27.869,12.503,27.869,27.87S45.944,58.446,30.577,58.446 M30.577,0C22.41,0,14.731,3.181,8.956,8.956
		C3.181,14.731,0,22.409,0,30.577c0,8.167,3.181,15.846,8.956,21.621c5.775,5.775,13.454,8.955,21.621,8.955
		c8.167,0,15.846-3.18,21.621-8.955c5.775-5.775,8.956-13.454,8.956-21.621c0-8.168-3.181-15.846-8.956-21.621
		C46.423,3.181,38.744,0,30.577,0"/>
	<path fill="#C4BA98" d="M30.577,3.596c-14.901,0-26.981,12.08-26.981,26.981c0,14.902,12.08,26.981,26.981,26.981
		c14.901,0,26.981-12.079,26.981-26.981C57.558,15.676,45.478,3.596,30.577,3.596 M30.577,4.3c14.489,0,26.277,11.788,26.277,26.277
		S45.066,56.854,30.577,56.854C16.088,56.854,4.3,45.066,4.3,30.577S16.088,4.3,30.577,4.3"/>
</g>
</svg>
