<?xml version="1.0" encoding="utf-8"?>
<!-- Generator: Adobe Illustrator 17.0.0, SVG Export Plug-In . SVG Version: 6.00 Build 0)  -->
<!DOCTYPE svg PUBLIC "-//W3C//DTD SVG 1.1//EN" "http://www.w3.org/Graphics/SVG/1.1/DTD/svg11.dtd">
<svg version="1.1" id="Group_886" xmlns="http://www.w3.org/2000/svg" xmlns:xlink="http://www.w3.org/1999/xlink" x="0px" y="0px"
	 width="67.783px" height="67.783px" viewBox="0 0 67.783 67.783" enable-background="new 0 0 67.783 67.783" xml:space="preserve">
<g id="Icon" opacity="0.37">
	<path id="Icon.BG" fill="#EFE5BD" d="M33.891,0c18.717,0,33.891,15.174,33.891,33.891S52.608,67.782,33.891,67.782
		S0,52.608,0,33.891S15.174,0,33.891,0z"/>
</g>
<path fill="#C0B08C" d="M39.213,25.187c0.815-1.1,1.298-2.461,1.298-3.932c0-3.65-2.969-6.619-6.619-6.619s-6.619,2.969-6.619,6.619
	c0,1.471,0.483,2.832,1.298,3.932c-2.156,0.768-3.705,2.828-3.705,5.245v7.898c0,1.861,1.282,3.428,3.009,3.865v6.966
	c0,2.198,1.788,3.986,3.986,3.986h4.062c2.198,0,3.986-1.788,3.986-3.986v-6.966c1.727-0.437,3.009-2.004,3.009-3.865v-7.898
	C42.918,28.015,41.369,25.954,39.213,25.187z M33.891,17.043c2.326,0,4.212,1.886,4.212,4.212s-1.886,4.212-4.212,4.212
	s-4.212-1.886-4.212-4.212S31.565,17.043,33.891,17.043z M40.511,38.329c0,0.872-0.707,1.58-1.58,1.58h-1.429v9.252
	c0,0.872-0.707,1.58-1.58,1.58h-4.062c-0.872,0-1.58-0.707-1.58-1.58v-9.252h-1.429c-0.872,0-1.58-0.707-1.58-1.58v-7.898
	c0-1.745,1.414-3.159,3.159-3.159h0.704c1.708,0.785,3.73,0.819,5.512,0h0.704c1.745,0,3.159,1.414,3.159,3.159V38.329z"/>
</svg>
