<?xml version="1.0" encoding="utf-8"?>
<!-- Generator: Adobe Illustrator 17.0.0, SVG Export Plug-In . SVG Version: 6.00 Build 0)  -->
<!DOCTYPE svg PUBLIC "-//W3C//DTD SVG 1.1//EN" "http://www.w3.org/Graphics/SVG/1.1/DTD/svg11.dtd">
<svg version="1.1" id="Group_886" xmlns="http://www.w3.org/2000/svg" xmlns:xlink="http://www.w3.org/1999/xlink" x="0px" y="0px"
	 width="48.523px" height="43.132px" viewBox="9.63 12.326 48.523 43.132" enable-background="new 9.63 12.326 48.523 43.132"
	 xml:space="preserve">
<path fill="#C0B08C" d="M35.913,23.109c0-1.117-0.906-2.022-2.022-2.022c-1.116,0-2.022,0.905-2.022,2.022
	c0,1.116,0.906,2.022,2.022,2.022C35.008,25.13,35.913,24.226,35.913,23.109z M56.807,25.804c-0.165,0-0.335,0.031-0.502,0.098
	L41.98,31.196h-0.001l-0.865-0.305c1.963-2.937,3.562-5.998,3.562-8.199c-0.001-5.725-4.829-10.366-10.784-10.366
	s-10.783,4.641-10.783,10.366c0,0.994,0.339,2.169,0.875,3.424l-12.659,4.403c-1.024,0.409-1.695,1.4-1.695,2.503v21.087
	c0,0.773,0.634,1.349,1.347,1.349c0.165,0,0.334-0.031,0.502-0.098l14.325-5.294l14.49,5.114c1.094,0.365,2.277,0.37,3.374,0.013
	l12.79-4.449c1.024-0.409,1.695-1.4,1.695-2.503V27.154C58.153,26.38,57.519,25.804,56.807,25.804z M24.456,47.69l-12.138,4.486
	L12.21,33.064l12.246-4.26V47.69z M33.891,15.021c4.46,0,8.087,3.44,8.087,7.67c0,2.275-3.209,7.488-8.087,13.207
	c-4.878-5.718-8.087-10.932-8.087-13.207C25.804,18.462,29.432,15.021,33.891,15.021z M40.631,52.441l-13.479-4.758V31.602
	c2.057,2.971,4.392,5.728,5.704,7.216c0.273,0.31,0.655,0.465,1.035,0.465s0.762-0.155,1.035-0.465
	c1.075-1.219,2.839-3.295,4.573-5.639l1.131,0.399L40.631,52.441L40.631,52.441z M43.327,52.458V33.572l12.138-4.487l0.108,19.112
	L43.327,52.458z"/>
</svg>
