<svg id="Group_887" data-name="Group 887" xmlns="http://www.w3.org/2000/svg" width="67.783" height="67.783" viewBox="0 0 67.783 67.783">
  <g id="Icon" opacity="0.37">
    <path id="Icon.BG" d="M33.891,0A33.891,33.891,0,1,1,0,33.891,33.891,33.891,0,0,1,33.891,0Z" transform="translate(0 0)" fill="#efe5bd"/>
  </g>
  <path id="map-marked-alt" d="M19.975,7.316A1.394,1.394,0,1,0,18.581,8.71,1.393,1.393,0,0,0,19.975,7.316ZM18.581,20.439a1.04,1.04,0,0,0,.785-.352c2.047-2.322,7.391-8.718,7.391-12.228A8.022,8.022,0,0,0,18.581,0a8.022,8.022,0,0,0-8.176,7.859c0,3.509,5.343,9.906,7.391,12.228a1.04,1.04,0,0,0,.785.352Zm0-17.652A5.244,5.244,0,0,1,23.97,7.859c0,1.243-1.845,4.592-5.389,8.86-3.544-4.267-5.389-7.617-5.389-8.86A5.244,5.244,0,0,1,18.581,2.787Zm13.937,6.5a.933.933,0,0,0-.346.067l-4.267,1.576a22.833,22.833,0,0,1-1.987,3.705l4.741-1.752V24.093l-7.432,2.586V18.365q-1.195,1.507-2.466,2.952a2.9,2.9,0,0,1-.321.294v4.728l-7.432-2.624V17.15a36.637,36.637,0,0,1-2.787-4.229V23.386l-.037.013-7.4,2.734V14.928l7.175-2.5A14.761,14.761,0,0,1,8.9,9.85L1.168,12.539A1.859,1.859,0,0,0,0,14.265V28.8a.928.928,0,0,0,1.275.862l9.874-3.649,9.987,3.525a3.715,3.715,0,0,0,2.326.009l8.816-3.066a1.858,1.858,0,0,0,1.168-1.725V10.221A.93.93,0,0,0,32.518,9.291Z" transform="translate(16.569 19.582)" fill="#c0b08c"/>
</svg>
