<svg id="Group_888" data-name="Group 888" xmlns="http://www.w3.org/2000/svg" width="67.783" height="67.783" viewBox="0 0 67.783 67.783">
  <g id="Icon" opacity="0.37">
    <path id="Icon.BG" d="M33.891,0A33.891,33.891,0,1,1,0,33.891,33.891,33.891,0,0,1,33.891,0Z" transform="translate(0 0)" fill="#efe5bd"/>
  </g>
  <path id="newspaper" d="M33.623,64H6.822a2.928,2.928,0,0,0-2.756,1.949h-2.6A1.462,1.462,0,0,0,0,67.411V83.979A3.411,3.411,0,0,0,3.411,87.39H33.623a1.462,1.462,0,0,0,1.462-1.462V65.462A1.462,1.462,0,0,0,33.623,64ZM2.924,83.979V68.873H3.9V83.979a.487.487,0,0,1-.975,0Zm29.238.487H6.787a3.438,3.438,0,0,0,.035-.487V66.924H32.161ZM10.477,77.157h8.284a.731.731,0,0,0,.731-.731V70.578a.731.731,0,0,0-.731-.731H10.477a.731.731,0,0,0-.731.731v5.848A.731.731,0,0,0,10.477,77.157Zm1.706-4.873h4.873V74.72H12.182ZM9.746,80.812V79.35a.731.731,0,0,1,.731-.731h8.284a.731.731,0,0,1,.731.731v1.462a.731.731,0,0,1-.731.731H10.477A.731.731,0,0,1,9.746,80.812Zm11.7,0V79.35a.731.731,0,0,1,.731-.731h6.335a.731.731,0,0,1,.731.731v1.462a.731.731,0,0,1-.731.731H22.172A.731.731,0,0,1,21.441,80.812Zm0-8.771V70.578a.731.731,0,0,1,.731-.731h6.335a.731.731,0,0,1,.731.731V72.04a.731.731,0,0,1-.731.731H22.172A.731.731,0,0,1,21.441,72.04Zm0,4.386V74.964a.731.731,0,0,1,.731-.731h6.335a.731.731,0,0,1,.731.731v1.462a.731.731,0,0,1-.731.731H22.172A.731.731,0,0,1,21.441,76.426Z" transform="translate(16.569 -41.406)" fill="#c0b08c"/>
</svg>
