<svg id="Group_886" data-name="Group 886" xmlns="http://www.w3.org/2000/svg" width="67.783" height="67.783" viewBox="0 0 67.783 67.783">
  <g id="Icon" opacity="0.37">
    <path id="Icon.BG" d="M33.891,0A33.891,33.891,0,1,1,0,33.891,33.891,33.891,0,0,1,33.891,0Z" transform="translate(0 0)" fill="#efe5bd"/>
  </g>
  <path id="user" d="M18.112,17.557c-1.658,0-2.455.924-5.175.924s-3.511-.924-5.175-.924A7.764,7.764,0,0,0,0,25.319V26.8A2.773,2.773,0,0,0,2.772,29.57H23.1A2.773,2.773,0,0,0,25.874,26.8V25.319A7.764,7.764,0,0,0,18.112,17.557ZM23.1,26.8H2.772V25.319a5,5,0,0,1,4.99-4.99c.843,0,2.212.924,5.175.924,2.986,0,4.326-.924,5.175-.924a5,5,0,0,1,4.99,4.99ZM12.937,16.633A8.317,8.317,0,1,0,4.62,8.317,8.319,8.319,0,0,0,12.937,16.633Zm0-13.861A5.544,5.544,0,1,1,7.393,8.317,5.553,5.553,0,0,1,12.937,2.772Z" transform="translate(21.088 19.582)" fill="#c0b08c"/>
</svg>
